<svg viewBox="0 0 206.86 206.86" xmlns="http://www.w3.org/2000/svg"><path d="m116.98 99.13c5.83-1.58 11.03-4.49 15.6-8.74 10.67-9.69 16.01-22.6 16.01-38.72 0-8.93-1.55-17.13-4.66-24.59-3.1-7.46-7.54-13.53-13.31-18.22-5.25-4.39-11.28-7.34-18.08-8.87h-36.48v101.51h16.01c10.78 0 19.09-.79 24.91-2.37z" fill="#074ba9"/><path d="m153.79 0c3.9 1.78 7.62 4.02 11.14 6.75 15.46 11.76 23.2 27.45 23.2 47.05s-7.84 34.53-23.53 43.78c-8.17 4.79-18.08 7.68-29.73 8.66-3.7.33-12.64.49-26.79.49h-32.02v58.65c0 11.11.63 19.36 1.88 24.75s3.57 9.83 6.94 13.31c1.23 1.28 2.55 2.41 3.95 3.41h118.03v-206.85h-53.06z" fill="#074ba9"/><path d="m34.89 11c-2.83-4.35-6.43-7.6-10.78-9.72-.96-.47-2-.89-3.09-1.28h-21.02v206.86h27.51c1.4-1 2.71-2.13 3.95-3.41 3.48-3.48 5.83-7.9 7.02-13.23 1.2-5.33 1.8-13.61 1.8-24.83v-120.41c0-9.37-.41-16.58-1.23-21.65-.82-5.06-2.21-9.17-4.17-12.33z" fill="#109d49"/></svg>